<svg width="187" height="65" viewBox="0 0 187 65" fill="none" xmlns="http://www.w3.org/2000/svg">
<path d="M22.3798 16.5036C24.2738 11.6234 26.4586 7.54461 29.5909 3.90269C30.7564 2.59186 32.0673 1.42632 33.6697 0.697673C36.3646 -0.540514 40.2249 1.3531 41.5363 4.26688C43.0661 7.763 42.4833 11.2596 41.6089 14.6099C39.3511 23.2778 35.4179 31.2171 30.9017 38.8651C28.498 42.9439 25.2935 46.5859 22.4528 50.3736C19.9032 53.797 17.0627 57.002 15.6059 61.0808C15.2416 62.1005 14.2951 62.8291 13.2022 62.756C11.8182 62.756 12.401 61.4452 12.1825 60.7165C11.6724 58.677 11.3086 56.5645 10.4343 54.7435C7.01086 47.4597 4.89868 39.7388 2.93191 32.0179C1.54785 26.555 -0.199881 21.0195 0.0186341 15.1923C0.164454 11.6961 0.892539 8.27274 2.27649 5.14042C3.80636 1.71702 6.79234 -0.322454 10.5801 0.0418677C14.8774 0.47882 17.3538 3.9023 18.8836 7.54422C19.976 10.3849 21.4332 13.0798 22.3798 16.5032L22.3798 16.5036ZM14.3678 55.1808C16.3346 52.8497 18.2283 50.7376 19.9765 48.4071C26.896 39.3023 34.1072 30.3432 37.1664 18.8347C38.3319 14.3188 38.9873 9.94841 37.9676 5.35959C37.6033 3.68444 36.8021 3.17431 35.0543 3.82972C30.9755 5.43269 28.6444 8.71029 26.8966 12.4249C25.0029 16.4312 24.2017 20.8011 23.8374 25.2443C23.7647 26.3367 23.5462 27.5754 22.3075 27.648C21.142 27.7207 20.9967 26.6283 20.7776 25.6085C20.6318 24.8073 20.4865 24.0787 20.4133 23.2049C19.9764 17.4509 18.5929 11.9153 15.1695 7.25326C13.7128 5.21378 11.7461 3.02863 9.1239 3.46553C6.21063 3.97565 4.46225 6.30623 3.80683 9.29273C1.91277 16.8677 3.95214 24.1518 5.40875 31.2899C7.08443 39.5208 10.6531 47.3144 14.3683 55.1809L14.3678 55.1808Z" fill="#005EB8"/>
<path d="M56.3953 35.1502C58.5074 34.4216 60.3283 34.6401 62.0767 34.5674C64.7716 34.4948 67.5396 35.2229 68.4135 37.6267C69.4332 40.2488 69.2148 43.3806 67.0295 45.7844C64.1888 48.9894 60.4743 51.0288 56.6138 52.5581C49.7674 55.3999 42.9202 58.0946 36.6561 62.0278C36.2918 62.2463 35.9275 62.3921 35.6364 62.6106C34.8352 63.4118 34.1065 64.5042 32.7957 63.7761C31.5575 63.0475 32.1403 61.664 32.2856 60.7169C32.7957 58.022 33.5238 55.3267 34.3976 52.6318C35.8543 48.0429 37.2383 43.4543 39.1319 39.0839C41.5355 33.621 44.5948 28.5224 50.4945 25.973C52.3155 25.1717 54.1365 25.0259 55.5205 26.1188C57.3415 27.5028 58.1427 29.6149 57.4873 31.946C57.1962 32.8925 56.8324 33.7669 56.3949 35.1505L56.3953 35.1502ZM35.4179 58.8955C36.2191 58.6044 36.8019 58.4586 37.2388 58.1669C42.7017 55.1804 48.4557 52.8499 54.283 50.5188C58.7261 48.7705 62.8051 46.2942 65.1361 41.7783C66.3016 39.4472 66.01 38.3549 63.5336 37.5537C60.4018 36.6066 57.7796 37.7722 55.3758 39.739C52.7537 41.9242 50.86 44.6917 48.8206 47.3871C48.2379 48.1157 47.5098 48.3342 46.7086 48.1157C46.1985 47.9699 45.7615 47.4603 45.9073 47.0233C46.4901 45.7125 46.0532 44.1826 47.4372 42.9445C50.9333 39.6669 53.8471 35.9518 54.0656 30.7805C54.0656 30.0519 54.3568 29.2506 53.5555 28.8137C52.8269 28.3768 52.2447 28.6679 51.516 29.0322C48.0199 30.9259 45.1792 33.4754 42.994 36.753C40.7361 40.1038 39.8622 44.0368 38.4781 47.7514C37.1657 51.3202 36.3645 54.9622 35.418 58.8957L35.4179 58.8955Z" fill="#FFD101"/>
<path d="M84.384 13.4936V19.3076C84.384 19.7876 84.486 20.1296 84.69 20.3336C84.894 20.5256 85.248 20.6216 85.752 20.6216H86.958V22.0076H85.482C84.57 22.0076 83.886 21.7976 83.43 21.3776C82.974 20.9576 82.746 20.2676 82.746 19.3076V13.4936H81.468V12.1436H82.746V9.65963H84.384V12.1436H86.958V13.4936H84.384ZM97.9426 16.6976C97.9426 17.0096 97.9246 17.3396 97.8886 17.6876H90.0046C90.0646 18.6596 90.3946 19.4216 90.9946 19.9736C91.6066 20.5136 92.3446 20.7836 93.2086 20.7836C93.9166 20.7836 94.5046 20.6216 94.9726 20.2976C95.4526 19.9616 95.7886 19.5176 95.9806 18.9656H97.7446C97.4806 19.9136 96.9526 20.6876 96.1606 21.2876C95.3686 21.8756 94.3846 22.1696 93.2086 22.1696C92.2726 22.1696 91.4326 21.9596 90.6886 21.5396C89.9566 21.1196 89.3806 20.5256 88.9606 19.7576C88.5406 18.9776 88.3306 18.0776 88.3306 17.0576C88.3306 16.0376 88.5346 15.1436 88.9426 14.3756C89.3506 13.6076 89.9206 13.0196 90.6526 12.6116C91.3966 12.1916 92.2486 11.9816 93.2086 11.9816C94.1446 11.9816 94.9726 12.1856 95.6926 12.5936C96.4126 13.0016 96.9646 13.5656 97.3486 14.2856C97.7446 14.9936 97.9426 15.7976 97.9426 16.6976ZM96.2506 16.3556C96.2506 15.7316 96.1126 15.1976 95.8366 14.7536C95.5606 14.2976 95.1826 13.9556 94.7026 13.7276C94.2346 13.4876 93.7126 13.3676 93.1366 13.3676C92.3086 13.3676 91.6006 13.6316 91.0126 14.1596C90.4366 14.6876 90.1066 15.4196 90.0226 16.3556H96.2506ZM99.4928 17.0396C99.4928 16.0316 99.6968 15.1496 100.105 14.3936C100.513 13.6256 101.071 13.0316 101.779 12.6116C102.499 12.1916 103.297 11.9816 104.173 11.9816C105.037 11.9816 105.787 12.1676 106.423 12.5396C107.059 12.9116 107.533 13.3796 107.845 13.9436V12.1436H109.501V22.0076H107.845V20.1716C107.521 20.7476 107.035 21.2276 106.387 21.6116C105.751 21.9836 105.007 22.1696 104.155 22.1696C103.279 22.1696 102.487 21.9536 101.779 21.5216C101.071 21.0896 100.513 20.4836 100.105 19.7036C99.6968 18.9236 99.4928 18.0356 99.4928 17.0396ZM107.845 17.0576C107.845 16.3136 107.695 15.6656 107.395 15.1136C107.095 14.5616 106.687 14.1416 106.171 13.8536C105.667 13.5536 105.109 13.4036 104.497 13.4036C103.885 13.4036 103.327 13.5476 102.823 13.8356C102.319 14.1236 101.917 14.5436 101.617 15.0956C101.317 15.6476 101.167 16.2956 101.167 17.0396C101.167 17.7956 101.317 18.4556 101.617 19.0196C101.917 19.5716 102.319 19.9976 102.823 20.2976C103.327 20.5856 103.885 20.7296 104.497 20.7296C105.109 20.7296 105.667 20.5856 106.171 20.2976C106.687 19.9976 107.095 19.5716 107.395 19.0196C107.695 18.4556 107.845 17.8016 107.845 17.0576ZM124.131 11.9636C124.899 11.9636 125.583 12.1256 126.183 12.4496C126.783 12.7616 127.257 13.2356 127.605 13.8716C127.953 14.5076 128.127 15.2816 128.127 16.1936V22.0076H126.507V16.4276C126.507 15.4436 126.261 14.6936 125.769 14.1776C125.289 13.6496 124.635 13.3856 123.807 13.3856C122.955 13.3856 122.277 13.6616 121.773 14.2136C121.269 14.7536 121.017 15.5396 121.017 16.5716V22.0076H119.397V16.4276C119.397 15.4436 119.151 14.6936 118.659 14.1776C118.179 13.6496 117.525 13.3856 116.697 13.3856C115.845 13.3856 115.167 13.6616 114.663 14.2136C114.159 14.7536 113.907 15.5396 113.907 16.5716V22.0076H112.269V12.1436H113.907V13.5656C114.231 13.0496 114.663 12.6536 115.203 12.3776C115.755 12.1016 116.361 11.9636 117.021 11.9636C117.849 11.9636 118.581 12.1496 119.217 12.5216C119.853 12.8936 120.327 13.4396 120.639 14.1596C120.915 13.4636 121.371 12.9236 122.007 12.5396C122.643 12.1556 123.351 11.9636 124.131 11.9636Z" fill="#222A3E"/>
<path d="M86.52 35.1596V45.2396C86.52 46.2476 86.768 47.0236 87.264 47.5676C87.76 48.1116 88.488 48.3836 89.448 48.3836C90.408 48.3836 91.144 48.1116 91.656 47.5676C92.168 47.0236 92.424 46.2476 92.424 45.2396V35.1596H96.528V45.2156C96.528 46.7196 96.208 47.9916 95.568 49.0316C94.928 50.0716 94.064 50.8556 92.976 51.3836C91.904 51.9116 90.704 52.1756 89.376 52.1756C88.048 52.1756 86.856 51.9196 85.8 51.4076C84.76 50.8796 83.936 50.0956 83.328 49.0556C82.72 47.9996 82.416 46.7196 82.416 45.2156V35.1596H86.52ZM109.178 52.0076L103.514 44.5676V52.0076H99.4099V35.1596H103.514V42.5516L109.13 35.1596H113.954L107.426 43.4156L114.194 52.0076H109.178ZM124.736 52.0076L121.232 45.6476H120.248V52.0076H116.144V35.1596H123.032C124.36 35.1596 125.488 35.3916 126.416 35.8556C127.36 36.3196 128.064 36.9596 128.528 37.7756C128.992 38.5756 129.224 39.4716 129.224 40.4636C129.224 41.5836 128.904 42.5836 128.264 43.4636C127.64 44.3436 126.712 44.9676 125.48 45.3356L129.368 52.0076H124.736ZM120.248 42.7436H122.792C123.544 42.7436 124.104 42.5596 124.472 42.1916C124.856 41.8236 125.048 41.3036 125.048 40.6316C125.048 39.9916 124.856 39.4876 124.472 39.1196C124.104 38.7516 123.544 38.5676 122.792 38.5676H120.248V42.7436ZM142.289 49.0316H136.001L134.993 52.0076H130.697L136.793 35.1596H141.545L147.641 52.0076H143.297L142.289 49.0316ZM141.233 45.8636L139.145 39.6956L137.081 45.8636H141.233ZM153.6 35.1596V52.0076H149.496V35.1596H153.6ZM171.646 52.0076H167.542L160.678 41.6156V52.0076H156.574V35.1596H160.678L167.542 45.5996V35.1596H171.646V52.0076ZM178.725 38.4476V41.8556H184.221V45.0236H178.725V48.7196H184.941V52.0076H174.621V35.1596H184.941V38.4476H178.725Z" fill="#222A3E"/>
</svg>
