<svg width="56" height="56" viewBox="0 0 56 56" fill="none" xmlns="http://www.w3.org/2000/svg">
<circle cx="28" cy="28" r="28" fill="#8D8F94"/>
<path d="M35 15C35.5523 15 36 15.4477 36 16V40.0001C36 40.5524 35.5523 41.0001 35 41.0001H21C20.4477 41.0001 20 40.5524 20 40.0001V16C20 15.4477 20.4477 15 21 15H35ZM20 13C18.8954 13 18 13.8954 18 15V41C18 42.1046 18.8954 43 20 43H36C37.1046 43 38 42.1046 38 41V15.0002C38 13.8956 37.1046 13.0002 36 13.0002L20 13Z" fill="white"/>
<path d="M28 39C28.5304 39 29.0391 38.7893 29.4142 38.4142C29.7893 38.0391 30 37.5304 30 37C30 36.4696 29.7893 35.9609 29.4142 35.5858C29.0391 35.2107 28.5304 35 28 35C27.4696 35 26.9609 35.2107 26.5858 35.5858C26.2107 35.9609 26 36.4696 26 37C26 37.5304 26.2107 38.0391 26.5858 38.4142C26.9609 38.7893 27.4696 39 28 39Z" fill="white"/>
</svg>
