<svg width="65" height="66" viewBox="0 0 65 66" fill="none" xmlns="http://www.w3.org/2000/svg">
<path d="M0.426437 65.9504C0.508722 65.9832 0.599642 65.9999 0.681928 65.9999C0.954108 65.9999 1.21821 65.8348 1.32525 65.5626L7.38032 50.4415C13.8969 52.3386 19.688 55.6962 24.5961 60.4394L23.1858 65.1003C23.0788 65.4715 23.2848 65.8593 23.6479 65.9663C24.019 66.082 24.4068 65.8754 24.5139 65.5043L26.0566 60.4394C26.1308 60.192 26.0647 59.9278 25.8753 59.7466C25.5537 59.4249 25.2073 59.1361 24.877 58.8225C31.4845 58.7483 37.985 57.9812 44.2214 56.488C56.7271 53.5016 63.8545 48.7503 64.4232 45.6074C64.5054 45.162 64.7448 43.8005 63.9283 42.7694C63.0375 41.6312 61.47 41.5817 60.8429 41.6145C60.1662 41.6473 59.5891 41.8291 59.1518 42.0184C58.7312 41.4902 58.0217 40.806 56.9411 40.4182C55.3409 39.8405 53.9052 40.2778 53.1214 40.6242C52.5189 40.0713 51.81 39.6673 51.0424 39.3871C57.7984 32.268 56.3794 26.2215 55.4064 23.8874C53.8557 20.1754 50.292 17.7086 46.5466 17.8161C42.6032 17.8984 39.2129 20.5799 37.0603 25.2401C34.9071 20.5792 31.5086 17.8983 27.5653 17.8161C23.7872 17.75 20.2482 20.1834 18.6975 23.8959C17.6831 26.3214 16.1652 32.7558 23.8699 40.2294L24.7607 41.1202C19.399 41.0379 14.1443 43.793 10.9104 48.5281L10.564 49.031C10.3827 49.2951 10.2009 49.5592 10.0197 49.8314C9.08748 49.5017 8.13854 49.2042 7.17368 48.932C6.83533 48.8411 6.47224 49.0143 6.34852 49.3446L0.0626171 65.0432C-0.101955 65.4068 0.0712479 65.8108 0.4257 65.9512L0.426437 65.9504ZM53.3363 42.0689C53.3363 42.0689 53.3444 42.0689 53.353 42.0609C53.6085 41.9044 54.978 41.1701 56.4793 41.7145C57.1807 41.97 57.6509 42.3992 57.9558 42.7537C55.5718 44.5438 52.8167 45.9047 49.7561 46.8121C49.748 46.7874 49.7561 46.7707 49.748 46.7379C49.542 45.9709 49.1375 45.2615 48.5851 44.5933C50.5155 43.7434 52.0577 42.9269 53.3363 42.0689L53.3363 42.0689ZM51.8518 41.3681C50.6722 42.0856 49.2612 42.8032 47.5212 43.5541C47.4142 43.4632 47.3066 43.3642 47.1915 43.2739L49.9553 40.5101C50.6395 40.6586 51.2908 40.9474 51.8519 41.3681L51.8518 41.3681ZM19.9774 24.4248C21.3054 21.2323 24.3166 19.0791 27.5338 19.2029C31.2953 19.2771 34.5291 22.2302 36.4016 27.2956C36.5995 27.84 37.4989 27.84 37.7049 27.2956C39.5773 22.2308 42.8112 19.2858 46.5727 19.2029C49.7732 19.112 52.7924 21.2323 54.1204 24.4248C55.0198 26.5861 56.3559 32.3523 49.2369 39.2645L45.987 42.5144C44.8816 41.9206 43.6277 41.5494 42.3158 41.4257C42.291 41.4257 42.2743 41.4338 42.2496 41.4338C42.2168 41.4338 42.1921 41.4257 42.1587 41.4257C38.8177 41.8959 35.3693 42.0282 31.9048 41.8216C30.1561 41.7146 28.5472 41.5328 26.8808 41.2686H26.8641L24.8363 39.2398C17.742 32.3514 19.0781 26.5858 19.9775 24.4251L19.9774 24.4248ZM11.6947 49.8235L12.0492 49.312C15.2002 44.7005 20.3807 42.0858 25.5698 42.5065C25.85 42.5313 26.1389 42.556 26.5434 42.6222L26.7661 42.655C28.375 42.9105 30.0247 43.0923 31.8148 43.2079C35.3369 43.4139 38.8429 43.2822 42.2334 42.8121C43.2812 42.9191 44.7986 43.2574 46.2176 44.2885C46.3741 44.4042 46.6382 44.6021 46.9351 44.8743C46.9679 44.899 46.9927 44.9405 47.0261 44.9566C47.5457 45.4515 48.1234 46.169 48.3869 47.1098C48.4692 47.4148 48.494 47.6461 48.4445 47.737C48.288 48.0506 47.5451 48.2238 46.2337 48.2319L43.9159 48.2485C41.3341 48.2652 37.7457 48.298 33.3817 48.3395C32.9939 48.3395 32.6889 48.6611 32.6969 49.0409C32.6969 49.4201 33.0106 49.7256 33.3898 49.7256H33.3978C37.7531 49.6842 41.3501 49.6514 43.9321 49.6347L46.2585 49.618C47.174 49.61 49.0718 49.5933 49.6903 48.3561C49.6984 48.3314 49.6984 48.3066 49.707 48.2819C53.32 47.2674 56.5459 45.6666 59.2843 43.4974C59.5646 43.3242 60.1423 43.0272 60.8932 42.9944C61.124 42.9864 62.3036 42.9616 62.8237 43.6216C63.261 44.1746 63.0959 45.0654 63.0464 45.3543C62.7414 47.0622 57.478 51.8877 43.8831 55.1294C37.2757 56.7136 30.3463 57.464 23.3264 57.4472C19.7134 54.4032 15.6957 52.0273 11.3238 50.3281C11.4642 50.1699 11.5798 49.9967 11.6949 49.8235L11.6947 49.8235Z" fill="#F7F7F7"/>
<path d="M49.7836 10.0385H54.4364H54.5521C56.6558 10.0385 58.2641 9.15581 58.8826 7.66258C59.3608 6.49966 59.1053 5.17161 58.2474 4.3464C57.8843 3.99999 57.0016 3.35667 55.517 3.6041C55.7645 2.12764 55.1292 1.23687 54.7747 0.873757C53.9582 0.015809 52.6215 -0.239681 51.4666 0.238494C49.9486 0.865699 49.0579 2.52353 49.0907 4.66803V9.33694C49.0901 9.72477 49.4037 10.0384 49.7835 10.0384L49.7836 10.0385ZM50.4764 4.66812C50.4516 3.07587 51.0046 1.93777 51.9857 1.53327C52.621 1.26915 53.3385 1.39287 53.7678 1.84687C54.2874 2.39122 54.3122 3.32333 53.8173 4.39603C53.6936 4.66015 53.7511 4.97375 53.9577 5.17975C54.1637 5.38574 54.4693 5.44387 54.7414 5.32015C55.814 4.82528 56.7461 4.85003 57.2906 5.36963C57.7359 5.79833 57.8597 6.51645 57.5955 7.15176C57.1916 8.13343 56.0201 8.68582 54.4526 8.66107H50.4844V4.6683L50.4764 4.66812Z" fill="#F7F7F7"/>
<path d="M37.0537 18.8652C37.128 19.0384 37.2597 19.1701 37.4329 19.2363C37.5152 19.2691 37.6061 19.2858 37.697 19.2858C37.788 19.2858 37.8783 19.2691 37.9692 19.2283L43.323 16.9513C45.7484 15.9616 47.1835 14.1962 47.1587 12.2242C47.142 10.731 46.2432 9.38621 44.9232 8.8833C43.7763 8.44597 42.5312 8.6773 41.3676 9.49382C41.0954 8.09152 40.3612 7.0603 39.2311 6.58155C37.9358 6.02857 36.3603 6.36692 35.3044 7.43144C33.9188 8.83373 33.7203 11.1026 34.7762 13.4865L37.0537 18.8652ZM36.2947 8.42181C36.7482 7.96838 37.3426 7.72038 37.9284 7.72038C38.1925 7.72038 38.448 7.76986 38.6874 7.86883C39.6276 8.26472 40.1311 9.38684 40.0897 10.9375C40.0816 11.2264 40.2548 11.4905 40.527 11.5976C40.7911 11.7046 41.1047 11.639 41.3026 11.4244C42.3419 10.2775 43.4887 9.8321 44.4375 10.1952C45.2293 10.4922 45.7656 11.3254 45.7736 12.2494C45.7903 13.6517 44.7097 14.9056 42.7872 15.6813L38.0602 17.686L36.0473 12.9508C35.2228 11.0697 35.3131 9.41938 36.2948 8.42166L36.2947 8.42181Z" fill="#F7F7F7"/>
</svg>
