<svg width="56" height="56" viewBox="0 0 56 56" fill="none" xmlns="http://www.w3.org/2000/svg">
<circle cx="28" cy="28" r="28" fill="#8D8F94"/>
<path d="M16 17C14.8954 17 14 17.8954 14 19V37.0001C14 38.1046 14.8954 39.0001 16 39.0001H41C42.1046 39.0001 43 38.1046 43 37.0001V19.0001C43 17.8955 42.1046 17.0001 41 17.0001L16 17ZM39.5 37H17L23.7533 30.4534L22.4733 29.2179L16.0555 35.8579V21L27.1044 31.4579C27.4375 31.789 27.8881 31.9749 28.3578 31.9749C28.8274 31.9749 29.278 31.789 29.6111 31.4579L41 20.5V36L34.4022 29.2001L33.1489 30.4534L39.5 37ZM16.5 19.1112L40.5 19L28.3578 30.1957L16.5 19.1112Z" fill="white"/>
</svg>
