<svg width="64" height="64" viewBox="0 0 64 64" fill="none" xmlns="http://www.w3.org/2000/svg">
<g clip-path="url(#clip0_105_554)">
<path d="M46.3275 42.7155L42.7168 46.3262L47.1601 50.7695L50.7707 47.1588L46.3275 42.7155Z" fill="#676E87"/>
<path d="M46.3262 42.7163L45.3887 43.6538L47.0937 45.3588C47.5714 45.8365 47.8397 46.4845 47.8397 47.1601C47.8397 47.8356 47.5714 48.4836 47.0937 48.9613L46.2187 49.8363L47.1562 50.7738L50.7662 47.1638L46.3262 42.7163Z" fill="#595F74"/>
<path d="M61.7398 61.7401C61.3205 62.1595 60.8226 62.4923 60.2746 62.7193C59.7266 62.9463 59.1392 63.0631 58.5461 63.0631C57.9529 63.0631 57.3656 62.9463 56.8176 62.7193C56.2696 62.4923 55.7717 62.1595 55.3523 61.7401L47.1598 53.5476C46.9773 53.3653 46.8325 53.1488 46.7337 52.9105C46.6348 52.6722 46.584 52.4168 46.584 52.1588C46.584 51.9009 46.6348 51.6454 46.7337 51.4071C46.8325 51.1688 46.9773 50.9524 47.1598 50.7701L50.7698 47.1601C50.9521 46.9775 51.1686 46.8327 51.4069 46.7339C51.6452 46.6351 51.9006 46.5842 52.1586 46.5842C52.4166 46.5842 52.672 46.6351 52.9103 46.7339C53.1486 46.8327 53.3651 46.9775 53.5473 47.1601L61.7398 55.3526C62.1593 55.772 62.492 56.2699 62.719 56.8179C62.9461 57.3658 63.0629 57.9532 63.0629 58.5463C63.0629 59.1395 62.9461 59.7268 62.719 60.2748C62.492 60.8228 62.1593 61.3207 61.7398 61.7401Z" fill="#FFCD85"/>
<path d="M61.7404 55.3526L53.5479 47.1601C53.3657 46.9775 53.1492 46.8327 52.9109 46.7339C52.6726 46.6351 52.4171 46.5842 52.1592 46.5842C51.9012 46.5842 51.6458 46.6351 51.4075 46.7339C51.1692 46.8327 50.9527 46.9775 50.7704 47.1601L50.2842 47.6463L57.9904 55.3526C58.4099 55.772 58.7426 56.2699 58.9696 56.8179C59.1966 57.3658 59.3135 57.9532 59.3135 58.5463C59.3135 59.1395 59.1966 59.7268 58.9696 60.2748C58.7426 60.8228 58.4099 61.3207 57.9904 61.7401C57.609 62.1213 57.1623 62.4312 56.6717 62.6551C57.5092 63.037 58.4434 63.154 59.3492 62.9905C60.255 62.8269 61.0893 62.3907 61.7404 61.7401V61.7401C62.1599 61.3207 62.4926 60.8228 62.7196 60.2748C62.9466 59.7268 63.0635 59.1395 63.0635 58.5463C63.0635 57.9532 62.9466 57.3658 62.7196 56.8179C62.4926 56.2699 62.1599 55.772 61.7404 55.3526V55.3526Z" fill="#FFC166"/>
<path d="M45.1368 45.1369C55.2509 35.0228 55.2509 18.6246 45.1368 8.51055C35.0227 -1.60355 18.6245 -1.60355 8.51045 8.51055C-1.60364 18.6246 -1.60364 35.0228 8.51045 45.1369C18.6245 55.251 35.0227 55.251 45.1368 45.1369Z" fill="#B3E0FF"/>
<path d="M26.8237 47.6649C38.334 47.6649 47.6649 38.334 47.6649 26.8237C47.6649 15.3134 38.334 5.98242 26.8237 5.98242C15.3134 5.98242 5.98242 15.3134 5.98242 26.8237C5.98242 38.334 15.3134 47.6649 26.8237 47.6649Z" fill="#D9F0FF"/>
<path d="M32.1992 23.8751H21.4492C21.2006 23.8751 20.9621 23.7763 20.7863 23.6005C20.6105 23.4247 20.5117 23.1862 20.5117 22.9376V18.6876C20.5124 17.9879 20.7906 17.3171 21.2853 16.8224C21.78 16.3277 22.4508 16.0495 23.1505 16.0488H30.5005C31.2001 16.0495 31.8709 16.3277 32.3656 16.8224C32.8603 17.3171 33.1386 17.9879 33.1392 18.6876V22.9376C33.1392 23.0609 33.1149 23.183 33.0676 23.2969C33.0203 23.4108 32.9511 23.5143 32.8637 23.6014C32.7764 23.6885 32.6728 23.7575 32.5588 23.8044C32.4447 23.8514 32.3225 23.8754 32.1992 23.8751V23.8751ZM22.3867 22.0001H31.2617V18.6838C31.2614 18.4814 31.1808 18.2873 31.0377 18.1441C30.8945 18.001 30.7004 17.9204 30.498 17.9201H23.1505C22.948 17.9204 22.7539 18.001 22.6108 18.1441C22.4676 18.2873 22.387 18.4814 22.3867 18.6838V22.0001Z" fill="#676E87"/>
<path d="M37.0111 21.0625H16.6374C15.7876 21.0625 15.0986 21.7514 15.0986 22.6012V35.1263C15.0986 35.9761 15.7876 36.665 16.6374 36.665H37.0111C37.861 36.665 38.5499 35.9761 38.5499 35.1263V22.6012C38.5499 21.7514 37.861 21.0625 37.0111 21.0625Z" fill="#FFC166"/>
<path d="M37.0098 21.0625H33.2598C33.668 21.0625 34.0595 21.2246 34.3483 21.5131C34.637 21.8016 34.7994 22.193 34.7998 22.6012V35.125C34.7994 35.5332 34.637 35.9246 34.3483 36.2131C34.0595 36.5017 33.668 36.6637 33.2598 36.6637H37.0098C37.418 36.6637 37.8095 36.5017 38.0983 36.2131C38.387 35.9246 38.5494 35.5332 38.5498 35.125V22.6012C38.5494 22.193 38.387 21.8016 38.0983 21.5131C37.8095 21.2246 37.418 21.0625 37.0098 21.0625V21.0625Z" fill="#FFB74E"/>
<path d="M38.5499 25.75L27.8424 30.4112C27.5209 30.551 27.1742 30.6231 26.8236 30.6231C26.4731 30.6231 26.1263 30.551 25.8049 30.4112L15.0986 25.75V22.6012C15.0986 22.1931 15.2608 21.8018 15.5493 21.5132C15.8379 21.2246 16.2293 21.0625 16.6374 21.0625H37.0124C37.4206 21.0625 37.8121 21.2246 38.1009 21.5131C38.3897 21.8016 38.5521 22.193 38.5524 22.6012L38.5499 25.75Z" fill="#FFAE36"/>
<path d="M37.0098 21.0625H33.2598C33.668 21.0625 34.0595 21.2246 34.3483 21.5131C34.637 21.8016 34.7994 22.193 34.7998 22.6012V27.375L38.5498 25.7425V22.6012C38.5494 22.193 38.387 21.8016 38.0983 21.5131C37.8095 21.2246 37.418 21.0625 37.0098 21.0625V21.0625Z" fill="#FFA41F"/>
<path d="M27.8242 28.3813H25.8242C25.341 28.3813 24.9492 28.7731 24.9492 29.2563V31.2563C24.9492 31.7396 25.341 32.1313 25.8242 32.1313H27.8242C28.3075 32.1313 28.6992 31.7396 28.6992 31.2563V29.2563C28.6992 28.7731 28.3075 28.3813 27.8242 28.3813Z" fill="#676E87"/>
<path d="M27.8237 28.3813H26.3887C26.6207 28.3813 26.8433 28.4735 27.0074 28.6376C27.1715 28.8017 27.2637 29.0243 27.2637 29.2563V31.2563C27.2637 31.4884 27.1715 31.711 27.0074 31.8751C26.8433 32.0392 26.6207 32.1313 26.3887 32.1313H27.8237C28.0557 32.1313 28.2783 32.0392 28.4424 31.8751C28.6065 31.711 28.6987 31.4884 28.6987 31.2563V29.2563C28.6987 29.0243 28.6065 28.8017 28.4424 28.6376C28.2783 28.4735 28.0557 28.3813 27.8237 28.3813V28.3813Z" fill="#595F74"/>
</g>
<defs>
<clipPath id="clip0_105_554">
<rect width="64" height="64" fill="white"/>
</clipPath>
</defs>
</svg>
