<svg width="64" height="64" viewBox="0 0 64 64" fill="none" xmlns="http://www.w3.org/2000/svg">
<path d="M48.573 6.66675V63.0001H6.33301V60.6801L6.34634 57.3334H43.2263V6.66675H48.573Z" fill="#7CC9F2"/>
<path d="M43.2267 1V57.3333H1V11.9867L11.9333 1H43.2267Z" fill="#C1ECFB"/>
<path d="M11.9267 1.00122V11.9292H1L11.9267 1.00122Z" fill="#7CC9F2"/>
<path d="M54.167 44.5454L56.8057 53.5201L59.4617 44.5507L54.167 44.5454Z" fill="#FCAC44"/>
<path d="M59.4704 23.3748H54.1758V44.5481H59.4704V23.3748Z" fill="#FF953F"/>
<path d="M59.4932 13.1332V16.4132L59.4799 23.3732H54.1865L54.1999 13.1332C54.1999 12.7857 54.2683 12.4415 54.4013 12.1204C54.5343 11.7993 54.7293 11.5075 54.975 11.2618C55.2208 11.016 55.5126 10.821 55.8337 10.688C56.1548 10.555 56.499 10.4866 56.8465 10.4866C57.1941 10.4866 57.5383 10.555 57.8594 10.688C58.1805 10.821 58.4722 11.016 58.718 11.2618C58.9638 11.5075 59.1587 11.7993 59.2917 12.1204C59.4247 12.4415 59.4932 12.7857 59.4932 13.1332V13.1332Z" fill="#FCAC44"/>
<path d="M25.6654 8.69989C24.886 8.36412 24.1423 7.95093 23.4454 7.46655C22.7485 7.95047 22.0048 8.36321 21.2254 8.69855C20.2366 9.06334 19.199 9.27903 18.1468 9.33855C18.1468 9.33855 18.6241 14.9826 19.1814 15.9559C20.1671 17.5728 21.6709 18.8087 23.4481 19.4626V19.4626C25.2253 18.8087 26.7291 17.5728 27.7148 15.9559C28.2721 14.9826 28.7494 9.33855 28.7494 9.33855C27.6954 9.28009 26.656 9.06483 25.6654 8.69989V8.69989ZM34.9641 28.4212H11.9268C11.6615 28.4212 11.4072 28.3159 11.2197 28.1283C11.0321 27.9408 10.9268 27.6864 10.9268 27.4212C10.9268 27.156 11.0321 26.9016 11.2197 26.7141C11.4072 26.5266 11.6615 26.4212 11.9268 26.4212H34.9641C35.2293 26.4212 35.4837 26.5266 35.6712 26.7141C35.8587 26.9016 35.9641 27.156 35.9641 27.4212C35.9641 27.6864 35.8587 27.9408 35.6712 28.1283C35.4837 28.3159 35.2293 28.4212 34.9641 28.4212V28.4212ZM34.9641 34.0345H23.4454C23.1802 34.0345 22.9259 33.9292 22.7383 33.7417C22.5508 33.5541 22.4454 33.2998 22.4454 33.0345C22.4454 32.7693 22.5508 32.515 22.7383 32.3274C22.9259 32.1399 23.1802 32.0345 23.4454 32.0345H34.9641C35.2293 32.0345 35.4837 32.1399 35.6712 32.3274C35.8587 32.515 35.9641 32.7693 35.9641 33.0345C35.9641 33.2998 35.8587 33.5541 35.6712 33.7417C35.4837 33.9292 35.2293 34.0345 34.9641 34.0345ZM19.8921 34.0345H11.9268C11.6615 34.0345 11.4072 33.9292 11.2197 33.7417C11.0321 33.5541 10.9268 33.2998 10.9268 33.0345C10.9268 32.7693 11.0321 32.515 11.2197 32.3274C11.4072 32.1399 11.6615 32.0345 11.9268 32.0345H19.8921C20.1573 32.0345 20.4117 32.1399 20.5992 32.3274C20.7867 32.515 20.8921 32.7693 20.8921 33.0345C20.8921 33.2998 20.7867 33.5541 20.5992 33.7417C20.4117 33.9292 20.1573 34.0345 19.8921 34.0345ZM34.9641 39.6492H11.9268C11.6615 39.6492 11.4072 39.5439 11.2197 39.3563C11.0321 39.1688 10.9268 38.9144 10.9268 38.6492C10.9268 38.384 11.0321 38.1296 11.2197 37.9421C11.4072 37.7546 11.6615 37.6492 11.9268 37.6492H34.9641C35.2293 37.6492 35.4837 37.7546 35.6712 37.9421C35.8587 38.1296 35.9641 38.384 35.9641 38.6492C35.9641 38.9144 35.8587 39.1688 35.6712 39.3563C35.4837 39.5439 35.2293 39.6492 34.9641 39.6492ZM34.9641 45.2639H31.3254C31.0602 45.2639 30.8059 45.1585 30.6183 44.971C30.4308 44.7835 30.3254 44.5291 30.3254 44.2639C30.3254 43.9987 30.4308 43.7443 30.6183 43.5568C30.8059 43.3692 31.0602 43.2639 31.3254 43.2639H34.9641C35.2293 43.2639 35.4837 43.3692 35.6712 43.5568C35.8587 43.7443 35.9641 43.9987 35.9641 44.2639C35.9641 44.5291 35.8587 44.7835 35.6712 44.971C35.4837 45.1585 35.2293 45.2639 34.9641 45.2639V45.2639ZM27.8561 45.2639H11.9268C11.6615 45.2639 11.4072 45.1585 11.2197 44.971C11.0321 44.7835 10.9268 44.5291 10.9268 44.2639C10.9268 43.9987 11.0321 43.7443 11.2197 43.5568C11.4072 43.3692 11.6615 43.2639 11.9268 43.2639H27.8561C28.1213 43.2639 28.3757 43.3692 28.5632 43.5568C28.7507 43.7443 28.8561 43.9987 28.8561 44.2639C28.8561 44.5291 28.7507 44.7835 28.5632 44.971C28.3757 45.1585 28.1213 45.2639 27.8561 45.2639V45.2639ZM34.9641 50.8772H11.9268C11.6615 50.8772 11.4072 50.7719 11.2197 50.5843C11.0321 50.3968 10.9268 50.1424 10.9268 49.8772C10.9268 49.612 11.0321 49.3576 11.2197 49.1701C11.4072 48.9826 11.6615 48.8772 11.9268 48.8772H34.9641C35.2293 48.8772 35.4837 48.9826 35.6712 49.1701C35.8587 49.3576 35.9641 49.612 35.9641 49.8772C35.9641 50.1424 35.8587 50.3968 35.6712 50.5843C35.4837 50.7719 35.2293 50.8772 34.9641 50.8772Z" fill="#7CC9F2"/>
<path d="M63.9998 16.84V23.48C63.9998 23.7452 63.8945 23.9996 63.7069 24.1871C63.5194 24.3746 63.265 24.48 62.9998 24.48C62.7346 24.48 62.4803 24.3746 62.2927 24.1871C62.1052 23.9996 61.9998 23.7452 61.9998 23.48V16.84C61.9991 16.7271 61.954 16.6189 61.8741 16.5391C61.7942 16.4592 61.6861 16.414 61.5732 16.4133H59.4932V14.4133H61.5732C62.216 14.4158 62.8318 14.6722 63.2864 15.1268C63.7409 15.5814 63.9974 16.1972 63.9998 16.84V16.84Z" fill="#FF953F"/>
<path d="M23.5645 14.8588C23.4331 14.8589 23.3031 14.833 23.1818 14.7827C23.0606 14.7323 22.9504 14.6585 22.8578 14.5654L21.7831 13.4908C21.6849 13.3992 21.6061 13.2888 21.5514 13.1661C21.4968 13.0435 21.4674 12.9111 21.465 12.7768C21.4626 12.6425 21.4873 12.5092 21.5376 12.3846C21.5879 12.2601 21.6628 12.147 21.7577 12.052C21.8527 11.9571 21.9658 11.8822 22.0903 11.8319C22.2148 11.7816 22.3482 11.7569 22.4825 11.7593C22.6168 11.7617 22.7492 11.7911 22.8718 11.8457C22.9945 11.9004 23.1049 11.9792 23.1965 12.0774L23.5645 12.4441L25.0071 11.0028C25.1967 10.8261 25.4474 10.73 25.7065 10.7345C25.9656 10.7391 26.2127 10.8441 26.396 11.0273C26.5792 11.2105 26.6841 11.4577 26.6887 11.7167C26.6933 11.9758 26.5971 12.2265 26.4205 12.4161L24.2671 14.5654C24.0808 14.7522 23.8282 14.8576 23.5645 14.8588Z" fill="#C1ECFB"/>
</svg>
