<svg width="64" height="64" viewBox="0 0 64 64" fill="none" xmlns="http://www.w3.org/2000/svg">
<path d="M30.2764 9.83006C30.1084 9.05468 30.0188 8.30781 29.9804 7.52218C29.9444 6.74168 29.9694 5.94206 30.1203 5.12119C30.2759 4.30494 30.5165 3.45093 31.0311 2.63806C31.1663 2.42331 31.3203 2.21468 31.4911 2.01518C32.204 1.18256 33.5494 1.41006 33.9364 2.43556C34.1615 3.03206 33.9883 3.73506 33.4566 4.08694C33.3629 4.14894 33.2703 4.21906 33.1789 4.29831C32.7841 4.63919 32.4555 5.16019 32.1798 5.73369C31.6321 6.89306 31.3631 8.33706 31.2865 9.71469L30.2764 9.83006Z" fill="#6D6D6D"/>
<path d="M43.4859 17.2529C42.8873 23.2068 38.5368 28.0811 33.7908 28.1346C33.3206 28.1346 32.8503 28.0918 32.4119 28.0063C31.3323 27.7926 30.2314 27.7926 29.1518 28.0063C28.7134 28.0918 28.2432 28.1346 27.7728 28.1346C23.0162 28.0812 18.6763 23.2068 18.0777 17.2529C17.4792 11.2777 20.8463 6.47819 25.5922 6.53169C26.4581 6.54244 27.3024 6.61719 28.1148 6.83107C29.8786 7.26932 31.6957 7.26932 33.4487 6.82032C34.2611 6.61719 35.1056 6.54244 35.9606 6.53169C40.7176 6.47819 44.0847 11.2777 43.4859 17.2529Z" fill="#F96464"/>
<path opacity="0.08" d="M43.4855 17.2519C42.8864 23.2092 38.5359 28.0838 33.7907 28.1315C33.3209 28.1315 32.8512 28.0907 32.4085 28.009C32.3542 27.9954 32.2928 27.9885 32.2383 27.9818C36.4185 27.1104 40.0065 22.6237 40.5443 17.252C41.0822 11.8599 38.3929 7.42779 34.3624 6.65166C34.8867 6.56991 35.4245 6.53591 35.9624 6.52916C40.7145 6.48129 44.0847 11.2743 43.4855 17.2519Z" fill="black"/>
<path d="M31.5225 7.59681C31.3897 7.22056 31.5822 6.78831 31.9508 6.63531C34.19 5.70543 36.432 5.75768 38.3058 6.61643C40.2013 7.44781 41.7398 9.10168 42.5335 11.3846C42.6645 11.7612 42.47 12.1921 42.1012 12.3436C37.6353 14.1763 33.1287 12.1473 31.5225 7.59681Z" fill="#13BD79"/>
<path d="M55.4886 37.3567C56.4281 38.201 57.6672 38.7183 59.0357 38.7183H36.1601C33.2394 38.7183 30.8701 36.3491 30.8701 33.4283C30.8701 31.9646 31.4625 30.6438 32.4156 29.6838C33.3756 28.7238 34.6964 28.1316 36.1601 28.1316H59.0357C57.6741 28.1316 56.435 28.6422 55.5022 29.4932C55.4274 29.5545 55.3592 29.6157 55.2912 29.6838C54.3312 30.6438 53.739 31.9646 53.739 33.4283C53.7389 34.9875 54.4129 36.39 55.4886 37.3567Z" fill="#0BAD67"/>
<path d="M55.4883 37.3567H36.1598C33.9948 37.3567 32.2314 35.5933 32.2314 33.4283C32.2314 32.3798 32.6399 31.3927 33.3821 30.6505C34.1242 29.9084 35.1113 29.4932 36.1598 29.4932H55.5021C55.4272 29.5544 55.3591 29.6157 55.2911 29.6838C54.3311 30.6438 53.7388 31.9645 53.7388 33.4283C53.7386 34.9874 54.4126 36.3899 55.4883 37.3567Z" fill="#F2F0F0"/>
<path d="M36.1609 38.7213H5.29498C2.3716 38.7213 0.000976562 36.3517 0.000976562 33.4283C0.000976562 31.9665 0.593601 30.6427 1.55148 29.6848C2.50923 28.7269 3.83323 28.1343 5.29498 28.1343H36.1607C34.699 28.1343 33.376 28.7269 32.4172 29.6848C31.4595 30.6427 30.8667 31.9665 30.8667 33.4283C30.8669 36.3517 33.2374 38.7213 36.1609 38.7213Z" fill="#13BD79"/>
<path opacity="0.08" d="M36.1602 38.7183H30.4277C27.5002 38.7183 25.1309 36.3491 25.1309 33.4283C25.1309 31.9646 25.7232 30.6438 26.6831 29.6838C27.6431 28.7238 28.9639 28.1316 30.4276 28.1316H36.1601C34.6964 28.1316 33.3756 28.7238 32.4156 29.6838C31.4625 30.6438 30.8701 31.9646 30.8701 33.4283C30.8702 36.3491 33.2395 38.7183 36.1602 38.7183Z" fill="black"/>
<path d="M33.1305 44.015C33.1305 46.9358 30.7612 49.305 27.8405 49.305H4.96484C6.33334 49.305 7.57247 48.7876 8.51197 47.9434C9.58772 46.9766 10.2617 45.5741 10.2617 44.015C10.2617 42.5513 9.66934 41.2305 8.70947 40.2705C8.64134 40.2024 8.57334 40.1344 8.49847 40.0799C7.56572 39.2289 6.32659 38.7183 4.96497 38.7183H27.8406C29.3043 38.7183 30.6251 39.3105 31.5851 40.2705C32.5382 41.2304 33.1305 42.5513 33.1305 44.015Z" fill="#F2B816"/>
<path d="M31.7684 44.0152C31.7684 46.1802 30.0052 47.9436 27.84 47.9436H8.51155C9.5873 46.9768 10.2613 45.5743 10.2613 44.0152C10.2613 42.5515 9.66892 41.2307 8.70905 40.2707C8.64092 40.2026 8.57292 40.1346 8.49805 40.0801H27.8403C28.8888 40.0801 29.8759 40.4953 30.618 41.2374C31.3599 41.9796 31.7684 42.9667 31.7684 44.0152Z" fill="#F2F0F0"/>
<path d="M27.8389 49.3082H58.7046C61.628 49.3082 63.9986 46.9386 63.9986 44.0152C63.9986 42.5534 63.406 41.2296 62.4481 40.2717C61.4904 39.3138 60.1664 38.7212 58.7046 38.7212H27.8389C29.3006 38.7212 30.6236 39.3138 31.5824 40.2717C32.5401 41.2296 33.1329 42.5534 33.1329 44.0152C33.1329 46.9387 30.7624 49.3082 27.8389 49.3082Z" fill="#FFCE29"/>
<path opacity="0.08" d="M63.9987 44.015C63.9987 46.9358 61.6294 49.305 58.7018 49.305H53.1123C56.0331 49.305 58.4023 46.9358 58.4023 44.015C58.4023 42.5513 57.8099 41.2305 56.8568 40.2705C55.8968 39.3105 54.5693 38.7183 53.1123 38.7183H58.7018C60.1656 38.7183 61.4932 39.3105 62.4463 40.2705C63.4064 41.2304 63.9987 42.5513 63.9987 44.015Z" fill="black"/>
<path d="M59.0493 61.1311C60.1591 61.9821 61.5479 62.4927 63.0526 62.4927H35.5201C31.8844 62.4927 28.9297 59.5379 28.9297 55.9023C28.9297 54.0777 29.6649 52.4302 30.8632 51.2387C32.0547 50.0473 33.7022 49.3052 35.5199 49.3052H63.0524C61.5546 49.3052 60.1658 49.8089 59.0561 50.6668C58.8178 50.8371 58.5999 51.0277 58.3888 51.2387C57.1973 52.4302 56.4621 54.0777 56.4621 55.9023C56.4622 58.0333 57.4766 59.9328 59.0493 61.1311Z" fill="#4EC5D8"/>
<path d="M59.049 61.131H35.5198C32.6399 61.131 30.291 58.7821 30.291 55.9022C30.291 54.4997 30.8356 53.1857 31.8229 52.1986C32.8101 51.2115 34.124 50.6667 35.5198 50.6667H59.0558C58.8175 50.837 58.5996 51.0276 58.3885 51.2386C57.197 52.4301 56.4618 54.0776 56.4618 55.9022C56.4619 58.0332 57.4763 59.9327 59.049 61.131Z" fill="#F2F0F0"/>
<path d="M35.521 62.4898H4.34635C1.94623 62.4898 0.000976562 60.5437 0.000976562 58.1445V53.654C0.000976562 51.2538 1.94623 49.3086 4.34635 49.3086H35.521C33.7006 49.3086 32.054 50.0463 30.8604 51.2391C29.6676 52.4308 28.9299 54.0792 28.9299 55.8997C28.93 59.5396 31.8811 62.4898 35.521 62.4898Z" fill="#66D5F2"/>
<path d="M26.8938 44.6482V51.2108C26.8938 51.6411 26.3789 51.8624 26.0667 51.5663L24.2489 49.8423C24.0599 49.6631 23.7636 49.6631 23.5746 49.8423L21.7568 51.5663C21.4446 51.8624 20.9297 51.6411 20.9297 51.2108V44.6482H26.8938Z" fill="#F96464"/>
<path d="M28.6732 45.157H19.1483C18.8664 45.157 18.6377 44.9282 18.6377 44.6464C18.6377 44.3645 18.8664 44.1357 19.1483 44.1357H28.6732C28.9551 44.1357 29.1838 44.3645 29.1838 44.6464C29.1838 44.9282 28.9551 45.157 28.6732 45.157Z" fill="#E5E3E5"/>
<path opacity="0.4" d="M9.67572 31.1831C9.67572 31.6334 9.31059 31.9987 8.86009 31.9987H5.78047C5.33009 31.9987 4.96484 31.6336 4.96484 31.1831C4.96484 30.7327 5.32997 30.3674 5.78047 30.3674H8.86022C9.31059 30.3676 9.67572 30.7327 9.67572 31.1831Z" fill="white"/>
</svg>
