<svg width="64" height="64" viewBox="0 0 64 64" fill="none" xmlns="http://www.w3.org/2000/svg">
<path d="M19.9802 1.28345V47.2035H14.656C11.3712 47.2035 8.72656 49.8576 8.72656 53.1235V7.07012C8.72656 3.87423 11.3173 1.28345 14.5132 1.28345H19.9802V1.28345Z" fill="#444444"/>
<path d="M55.2765 47.2054H19.9824V1.28662H53.1981C54.346 1.28662 55.2765 2.21717 55.2765 3.36506V47.2054Z" fill="#FE9967"/>
<path d="M55.2768 3.36347V47.2035H49.6014V3.36347C49.6014 2.21526 48.6697 1.28345 47.5215 1.28345H53.1968C54.345 1.28344 55.2768 2.21525 55.2768 3.36347Z" fill="#FFAC88"/>
<path d="M19.9824 3.36347V47.2035H25.6577V3.36347C25.6577 2.21526 26.5895 1.28345 27.7377 1.28345H22.0624C20.9142 1.28344 19.9824 2.21525 19.9824 3.36347Z" fill="#EF8759"/>
<path d="M31.9546 1.28345C30.8064 1.28345 29.8746 2.21526 29.8746 3.36347V47.2035H28.124V3.36348C28.124 2.21527 29.0558 1.28346 30.204 1.28346H31.9546V1.28345Z" fill="#FFAC88"/>
<path d="M54.3005 61.4188C54.6834 61.9636 54.3033 62.7166 53.6375 62.7166H14.6554C11.374 62.7166 8.72363 60.0662 8.72363 56.7964V53.1256C8.72363 49.8557 11.374 47.2053 14.6554 47.2053H55.2769C51.0384 52.5564 50.7106 56.3117 54.3005 61.4188Z" fill="#E2E2E2"/>
<path d="M55.2771 47.2034C53.9687 48.8504 53.037 50.4975 52.4724 52.154H14.656C11.3712 52.154 8.72656 54.8081 8.72656 58.0834V53.1234C8.72656 49.8575 11.3712 47.2034 14.656 47.2034H55.2771Z" fill="#EDEDED"/>
<path d="M50.0676 53.0999H16.4031C15.8829 53.0999 15.4619 52.6789 15.4619 52.1587C15.4619 51.6385 15.8829 51.2175 16.4031 51.2175H50.0676C50.5878 51.2175 51.0088 51.6385 51.0088 52.1587C51.0088 52.6789 50.5878 53.0999 50.0676 53.0999ZM50.0676 58.7047H16.4031C15.8829 58.7047 15.4619 58.2837 15.4619 57.7635C15.4619 57.2433 15.8829 56.8223 16.4031 56.8223H50.0676C50.5878 56.8223 51.0088 57.2433 51.0088 57.7635C51.0088 58.2837 50.5878 58.7047 50.0676 58.7047Z" fill="#D3D3D3"/>
<path d="M49.5708 9.30444H25.6885V24.2456H49.5708V9.30444Z" fill="#E2E2E2"/>
<path opacity="0.5" d="M30.5985 9.30249H25.6855V24.2484H30.5985V9.30249Z" fill="#D0D2C7"/>
<path opacity="0.5" d="M49.5705 9.30249H44.667V24.2484H49.5705V9.30249Z" fill="white"/>
<path d="M13.1519 9.29225V16.841C13.1519 17.3612 12.7309 17.7821 12.2107 17.7821C11.6905 17.7821 11.2695 17.3612 11.2695 16.841V9.29225C11.2695 8.77203 11.6905 8.35107 12.2107 8.35107C12.7309 8.35107 13.1519 8.77202 13.1519 9.29225ZM13.1519 20.2923V20.8014C13.1519 21.3217 12.7309 21.7426 12.2107 21.7426C11.6905 21.7426 11.2695 21.3217 11.2695 20.8014V20.2923C11.2695 19.772 11.6905 19.3511 12.2107 19.3511C12.7309 19.3511 13.1519 19.772 13.1519 20.2923Z" fill="white"/>
</svg>
