<svg width="64" height="64" viewBox="0 0 64 64" fill="none" xmlns="http://www.w3.org/2000/svg">
<path fill-rule="evenodd" clip-rule="evenodd" d="M31.3763 31.9749V61.9797L31.3556 61.9998L8.02136 52.0208L8.00098 51.9868V21.9819L8.02136 22.0178L31.3556 31.9968L31.3763 31.9749Z" fill="#FCD062"/>
<path fill-rule="evenodd" clip-rule="evenodd" d="M54.7515 21.9727L54.7314 22.0079L31.3955 31.9883V61.9922L54.7314 52.0118L54.7515 51.9766V21.9727V21.9727Z" fill="#F8AA3A"/>
<path fill-rule="evenodd" clip-rule="evenodd" d="M54.7311 21.9836L31.397 12.0046H31.3557L8.02161 21.9836L8.02148 22.0076L31.3557 31.9866L54.7311 21.9836Z" fill="#F8C253"/>
<path d="M47.0568 49.0078L41.2233 51.5027L35.3896 53.9973M41.2233 47.5125L35.3896 50.0071" stroke="#34485C" stroke-linecap="round" stroke-linejoin="round"/>
<path fill-rule="evenodd" clip-rule="evenodd" d="M8 22.0002L0 30.0002L23.4 40.0002L31.4 32.0002L8 22.0002ZM39.4 4.00024L31.4 12.0002L54.8 22.0002L62.8 14.0002L39.4 4.00024ZM54.8 22.0002L62.8 30.0002L39.4 40.0002L31.4 32.0002L54.8 22.0002ZM23.4 4.00024L31.4 12.0002L8 22.0002L0 14.0002L23.4 4.00024Z" fill="#F8B84E"/>
</svg>
