<svg width="64" height="64" viewBox="0 0 64 64" fill="none" xmlns="http://www.w3.org/2000/svg">
<path d="M52.4288 54.4098V50.5385C52.4292 49.2926 52.876 48.088 53.6883 47.1433L62.2771 37.1457C62.7139 36.6379 63.0159 36.0284 63.1553 35.3733C63.2946 34.7181 63.2668 34.0385 63.0745 33.3969L58.1205 16.8823C57.9931 16.4601 57.733 16.0903 57.3788 15.8276C57.0246 15.565 56.5951 15.4234 56.1542 15.4241V15.4241C55.8736 15.4234 55.5959 15.4803 55.3382 15.5915C55.0806 15.7026 54.8486 15.8655 54.6566 16.0701C54.4646 16.2747 54.3167 16.5166 54.2221 16.7807C54.1275 17.0449 54.0883 17.3256 54.1068 17.6056L55.1037 32.1594L48.1948 40.5075L43.3525 54.4098H52.4288Z" fill="#FFCD85"/>
<path d="M50.0308 39.0055L54.7342 34.3669C55.0787 34.0272 55.3529 33.6229 55.541 33.1771C55.7292 32.7313 55.8276 32.2528 55.8308 31.769C55.8339 31.2852 55.7417 30.8054 55.5593 30.3573C55.377 29.9091 55.1081 29.5012 54.768 29.157L54.7031 29.0913C54.434 28.8189 54.0687 28.6631 53.6859 28.6574C53.303 28.6517 52.9333 28.7965 52.6562 29.0608L44.1786 37.1449C43.3104 37.9717 42.6191 38.9663 42.1466 40.0682C41.6741 41.1701 41.4302 42.3565 41.4297 43.5554V54.7201L49.6807 52.7466L50.0308 39.0055Z" fill="#FFCD85"/>
<path d="M51.8112 37.2501L54.7352 34.3664C55.0797 34.0266 55.3538 33.6224 55.5419 33.1766C55.7301 32.7309 55.8285 32.2524 55.8316 31.7686C55.8347 31.2848 55.7424 30.8051 55.5599 30.357C55.3775 29.9089 55.1086 29.5012 54.7685 29.1571L54.7032 29.091C54.4341 28.8188 54.0689 28.663 53.6861 28.6574C53.3033 28.6517 52.9336 28.7966 52.6566 29.0608L52.4038 29.3018C53.0294 30.0073 53.3606 30.9258 53.3292 31.8681C53.2977 32.8105 52.9059 33.7049 52.2346 34.367L47.5312 39.0056C49.1332 39.0056 50.6707 38.3749 51.8112 37.2501Z" fill="#FFC166"/>
<path d="M39.6836 63.9999V54.3382C39.6852 53.6438 39.9626 52.9785 40.4548 52.4886C40.9469 51.9988 41.6135 51.7245 42.3079 51.7261H51.4765C52.1709 51.7245 52.8375 51.9988 53.3297 52.4886C53.8218 52.9785 54.0992 53.6438 54.1009 54.3382V63.9999H39.6836Z" fill="#66C1FF"/>
<path d="M54.1008 54.7188H39.6836V56.5938H54.1008V54.7188Z" fill="#4EB7FF"/>
<path d="M11.7513 54.4098V50.5385C11.7509 49.2926 11.3041 48.088 10.4918 47.1433L1.903 37.1457C1.46619 36.6379 1.16419 36.0284 1.02484 35.3733C0.885482 34.7181 0.913249 34.0385 1.10558 33.3969L6.05958 16.8823C6.18702 16.4601 6.44714 16.0903 6.80134 15.8276C7.15555 15.565 7.58498 15.4234 8.02595 15.4241V15.4241C8.30652 15.4234 8.58424 15.4803 8.84186 15.5915C9.09948 15.7026 9.3315 15.8655 9.5235 16.0701C9.71551 16.2747 9.86339 16.5166 9.95798 16.7807C10.0526 17.0449 10.0918 17.3256 10.0733 17.6056L9.07639 32.1594L15.9853 40.5075L20.8276 54.4098H11.7513Z" fill="#FFCD85"/>
<path d="M14.1487 39.0055L9.4453 34.3669C9.1008 34.0272 8.82663 33.6229 8.63848 33.1771C8.45032 32.7313 8.35185 32.2528 8.34871 31.769C8.34557 31.2852 8.43781 30.8054 8.62016 30.3573C8.80252 29.9091 9.07141 29.5012 9.41147 29.157L9.47645 29.0913C9.74554 28.8189 10.1108 28.6631 10.4936 28.6574C10.8765 28.6517 11.2462 28.7965 11.5233 29.0608L20.0009 37.1449C20.8691 37.9717 21.5604 38.9663 22.0329 40.0682C22.5054 41.1701 22.7493 42.3565 22.7498 43.5554V54.7201L14.4988 52.7466L14.1487 39.0055Z" fill="#FFCD85"/>
<path d="M12.369 37.2501L9.44506 34.3664C9.10058 34.0266 8.82645 33.6224 8.63833 33.1766C8.45021 32.7309 8.3518 32.2524 8.34871 31.7686C8.34562 31.2848 8.43792 30.8051 8.62034 30.357C8.80275 29.9089 9.0717 29.5012 9.41181 29.1571L9.47707 29.091C9.74618 28.8188 10.1114 28.663 10.4942 28.6574C10.877 28.6517 11.2466 28.7966 11.5237 29.0608L11.7765 29.3018C11.1508 30.0073 10.8196 30.9258 10.8511 31.8681C10.8826 32.8105 11.2743 33.7049 11.9456 34.367L16.649 39.0056C15.0471 39.0056 13.5096 38.3749 12.369 37.2501V37.2501Z" fill="#FFC166"/>
<path d="M24.4964 63.9999V54.3382C24.4948 53.6438 24.2173 52.9785 23.7252 52.4886C23.233 51.9988 22.5664 51.7245 21.872 51.7261H12.7034C12.009 51.7245 11.3424 51.9988 10.8503 52.4886C10.3581 52.9785 10.0807 53.6438 10.0791 54.3382V63.9999H24.4964Z" fill="#66C1FF"/>
<path d="M10.0791 54.7188H24.4964V56.5938H10.0791V54.7188Z" fill="#4EB7FF"/>
<path d="M32 45.9582C31.8769 45.9583 31.755 45.934 31.6412 45.8869C31.5275 45.8398 31.4241 45.7707 31.3371 45.6837C31.25 45.5966 31.181 45.4933 31.1338 45.3795C31.0867 45.2658 31.0625 45.1439 31.0625 45.0207V5.3125C31.0625 5.06386 31.1613 4.8254 31.3371 4.64959C31.5129 4.47377 31.7514 4.375 32 4.375C32.2486 4.375 32.4871 4.47377 32.6629 4.64959C32.8387 4.8254 32.9375 5.06386 32.9375 5.3125V45.0207C32.9375 45.1439 32.9133 45.2658 32.8662 45.3795C32.819 45.4933 32.75 45.5966 32.6629 45.6837C32.5759 45.7707 32.4725 45.8398 32.3588 45.8869C32.245 45.934 32.1231 45.9583 32 45.9582V45.9582Z" fill="#DEDEDE"/>
<path d="M47.5337 16.4063H32V9.28132L35.9612 7.23255C36.8979 6.74795 37.9706 6.5933 39.006 6.79358C40.0415 6.99386 40.9791 7.53738 41.6675 8.33631L47.9125 15.5801C47.975 15.6526 48.0154 15.7415 48.0289 15.8363C48.0423 15.9311 48.0283 16.0278 47.9884 16.1148C47.9485 16.2018 47.8844 16.2756 47.8038 16.3272C47.7232 16.3789 47.6295 16.4064 47.5337 16.4063V16.4063Z" fill="#FF7070"/>
<path d="M47.9126 15.58L41.6676 8.33618C41.0875 7.66312 40.3281 7.16872 39.4779 6.91055C38.6277 6.65239 37.7216 6.64109 36.8652 6.87796C37.7604 7.12479 38.5618 7.6324 39.1676 8.33618L45.4126 15.58C45.4751 15.6525 45.5155 15.7414 45.5289 15.8362C45.5424 15.931 45.5283 16.0276 45.4884 16.1147C45.4485 16.2017 45.3845 16.2754 45.3039 16.3271C45.2233 16.3788 45.1296 16.4062 45.0338 16.4062H47.5338C47.6296 16.4062 47.7233 16.3788 47.8039 16.3271C47.8845 16.2754 47.9485 16.2017 47.9884 16.1147C48.0283 16.0276 48.0424 15.931 48.0289 15.8362C48.0155 15.7414 47.9751 15.6525 47.9126 15.58V15.58Z" fill="#FF4E4E"/>
<path d="M31.9996 9.28132V16.4063H16.4659C16.3701 16.4064 16.2764 16.3789 16.1958 16.3272C16.1152 16.2756 16.0512 16.2018 16.0113 16.1148C15.9714 16.0278 15.9573 15.9311 15.9708 15.8363C15.9842 15.7415 16.0246 15.6526 16.0871 15.5801L22.3321 8.33631C23.0205 7.53738 23.9582 6.99386 24.9936 6.79358C26.029 6.5933 27.1017 6.74795 28.0384 7.23255L31.9996 9.28132Z" fill="#FF7070"/>
<path d="M36.4395 45.9586C36.2989 45.9585 36.16 45.9268 36.0333 45.8659C35.9065 45.805 35.7951 45.7163 35.7072 45.6065C35.6193 45.4967 35.5572 45.3685 35.5255 45.2315C35.4938 45.0944 35.4934 44.952 35.5241 44.8148C35.7761 43.6963 33.7791 42.7849 31.1423 41.7096C28.6683 40.7007 26.3315 39.7478 25.782 37.9499C25.6915 37.6648 25.6597 37.3643 25.6885 37.0665C25.7173 36.7687 25.8062 36.4799 25.9496 36.2174C26.8289 34.5844 29.6541 33.7525 32.9255 32.7893C34.4464 32.3414 36.0191 31.8784 37.1959 31.3613C38.6666 30.7151 38.9223 30.2442 38.9639 30.0718C38.9769 30.0301 38.9798 29.986 38.9725 29.9429C38.9651 29.8999 38.9478 29.8592 38.9218 29.8242C38.2531 28.7798 34.3808 28.0165 31.2693 27.4032C26.3793 26.4392 22.1562 25.6068 21.5239 23.1847C21.4532 22.9243 21.4368 22.6522 21.4755 22.3853C21.5143 22.1183 21.6074 21.8622 21.7492 21.6327C22.3365 20.6628 23.7267 19.9865 26.398 19.3716C26.6403 19.3158 26.8948 19.3585 27.1056 19.4904C27.3164 19.6223 27.4661 19.8325 27.5219 20.0748C27.5777 20.3171 27.5349 20.5716 27.4031 20.7824C27.2712 20.9932 27.061 21.1429 26.8187 21.1987C24.0764 21.8302 23.4815 22.3917 23.353 22.6039C23.3412 22.6188 23.3336 22.6365 23.3309 22.6554C23.3283 22.6742 23.3308 22.6934 23.3381 22.7109C23.3962 22.9336 23.7554 23.5248 25.8321 24.2079C27.444 24.738 29.5731 25.1577 31.6319 25.5636C35.8006 26.3852 39.4007 27.0949 40.5009 28.8132C40.6633 29.0614 40.7724 29.3405 40.8216 29.6329C40.8707 29.9254 40.8588 30.2248 40.7864 30.5124C40.2875 32.5761 37.1213 33.5084 33.455 34.588C31.0732 35.2893 28.1089 36.1621 27.6005 37.1064C27.5741 37.1505 27.5582 37.2001 27.5538 37.2513C27.5494 37.3026 27.5567 37.3541 27.5753 37.4021C27.8643 38.348 30.0744 39.2492 31.8503 39.9734C34.7206 41.1439 37.9741 42.4706 37.3532 45.2269C37.3064 45.4344 37.1905 45.6198 37.0245 45.7528C36.8585 45.8857 36.6522 45.9583 36.4395 45.9586Z" fill="#676E87"/>
<path d="M27.5612 45.9585C27.3485 45.9582 27.1422 45.8856 26.9762 45.7527C26.8101 45.6197 26.6942 45.4343 26.6475 45.2268C26.0266 42.4704 29.28 41.1438 32.1504 39.9732C33.9263 39.2491 36.1364 38.3479 36.4254 37.402C36.4439 37.354 36.4513 37.3024 36.4469 37.2512C36.4425 37.2 36.4265 37.1504 36.4002 37.1063C35.8917 36.162 32.9275 35.2892 30.5457 34.5879C26.8794 33.5083 23.7131 32.576 23.2142 30.5123C23.1419 30.2247 23.13 29.9253 23.1791 29.6328C23.2282 29.3404 23.3374 29.0613 23.4998 28.8131C24.6 27.0948 28.2001 26.3851 32.3688 25.5635C34.4276 25.1576 36.5567 24.7379 38.1686 24.2077C40.2453 23.5246 40.6045 22.9334 40.6626 22.7109C40.6699 22.6933 40.6724 22.6741 40.6698 22.6553C40.6671 22.6365 40.6595 22.6187 40.6477 22.6037C40.5192 22.3916 39.9242 21.8299 37.1814 21.1985C37.0614 21.1708 36.9481 21.1199 36.8478 21.0484C36.7475 20.977 36.6623 20.8865 36.597 20.7822C36.4651 20.5714 36.4224 20.3169 36.4782 20.0746C36.5339 19.8323 36.6837 19.6221 36.8945 19.4902C37.1052 19.3583 37.3598 19.3155 37.6021 19.3713C40.2737 19.9863 41.6641 20.6626 42.2515 21.6324C42.3933 21.8619 42.4864 22.1181 42.5252 22.3851C42.5639 22.6521 42.5475 22.9242 42.4768 23.1845C41.8445 25.6067 37.6214 26.4391 32.7313 27.4031C29.6199 28.0163 25.7476 28.7796 25.0789 29.8241C25.0529 29.8591 25.0355 29.8998 25.0282 29.9428C25.0209 29.9858 25.0238 30.03 25.0368 30.0716C25.0784 30.2441 25.3341 30.7149 26.8048 31.3612C27.9816 31.8783 29.5543 32.3413 31.0752 32.7892C34.3466 33.7524 37.1718 34.5843 38.051 36.2173C38.1945 36.4798 38.2834 36.7686 38.3122 37.0664C38.341 37.3641 38.3092 37.6647 38.2186 37.9498C37.6692 39.7477 35.3324 40.7005 32.8584 41.7094C30.2216 42.7848 28.2246 43.6961 28.4766 44.8147C28.5073 44.9519 28.5068 45.0943 28.4752 45.2314C28.4435 45.3684 28.3814 45.4966 28.2935 45.6064C28.2056 45.7162 28.0942 45.8048 27.9674 45.8658C27.8407 45.9267 27.7018 45.9584 27.5612 45.9585V45.9585Z" fill="#595F74"/>
<path d="M42.9534 16.4063H39.2321C38.574 16.0331 37.9799 15.5571 37.4721 14.9963C36.8881 14.3478 36.4269 13.5985 36.1109 12.785C36.0661 12.6704 36.0443 12.548 36.0468 12.4249C36.0492 12.3018 36.0759 12.1805 36.1253 12.0677C36.2251 11.84 36.4112 11.6612 36.6428 11.5707C36.8743 11.4802 37.1324 11.4854 37.3601 11.5851C37.4729 11.6345 37.5748 11.7056 37.6601 11.7944C37.7453 11.8832 37.8123 11.9879 37.8571 12.1025C38.0906 12.7044 38.4316 13.2588 38.8634 13.7388C39.9759 14.9688 41.4096 15.3588 42.1646 15.4813C42.3845 15.5168 42.5846 15.6293 42.7291 15.7988C42.8736 15.9682 42.9531 16.1836 42.9534 16.4063V16.4063ZM27.8884 12.785C27.5724 13.5985 27.1111 14.3478 26.5271 14.9963C26.0194 15.5571 25.4252 16.0331 24.7671 16.4063H21.0459C21.0462 16.1836 21.1257 15.9682 21.2702 15.7988C21.4147 15.6293 21.6148 15.5168 21.8346 15.4813C22.5896 15.3588 24.0234 14.9688 25.1359 13.7388C25.5677 13.2588 25.9087 12.7044 26.1421 12.1025C26.2327 11.871 26.4114 11.6848 26.6392 11.5851C26.8669 11.4854 27.1249 11.4802 27.3565 11.5707C27.5881 11.6612 27.7742 11.84 27.8739 12.0677C27.9737 12.2954 27.9789 12.5535 27.8884 12.785L27.8884 12.785Z" fill="#FF4E4E"/>
<path d="M32 5.3125C33.2081 5.3125 34.1875 4.33312 34.1875 3.125C34.1875 1.91688 33.2081 0.9375 32 0.9375C30.7919 0.9375 29.8125 1.91688 29.8125 3.125C29.8125 4.33312 30.7919 5.3125 32 5.3125Z" fill="#676E87"/>
</svg>
