<svg width="64" height="64" viewBox="0 0 64 64" fill="none" xmlns="http://www.w3.org/2000/svg">
<g style="mix-blend-mode:multiply">
<path d="M61.1148 23.145C59.8798 20.835 54.6198 12.325 49.3348 9.16002C48.0348 8.38502 44.4248 7.38502 42.8148 6.94502C40.6898 6.20002 39.9848 6.30502 39.2948 6.63002C36.6648 7.87502 34.8998 8.47002 32.2048 8.47002C32.1298 8.47002 32.0598 8.46502 31.9898 8.46502C31.9198 8.47002 31.8498 8.47002 31.7748 8.47002C29.0798 8.47002 27.3148 7.87502 24.6848 6.63002C23.9948 6.30502 23.2898 6.20002 21.1648 6.94502C19.5548 7.38502 15.9448 8.38502 14.6448 9.16002C9.3598 12.32 4.0998 20.835 2.8648 23.145C2.6898 23.465 2.4698 23.75 2.5998 24.085C3.2098 25.64 5.4148 27.675 10.1798 30.495C10.5148 30.695 10.9298 30.72 11.2348 30.48C12.4848 29.495 15.5248 25.755 15.5248 25.755C15.5248 25.755 17.6898 34.565 16.7798 42.18C15.8648 49.795 14.2998 55.715 14.2998 55.715C14.2548 56.09 14.4498 56.455 14.7998 56.62C16.3048 57.345 23.5648 58.98 31.9948 58.995C40.4248 58.985 47.6848 57.345 49.1898 56.62C49.5398 56.455 49.7348 56.085 49.6898 55.715C49.6898 55.715 48.1198 49.8 47.2098 42.18C46.2948 34.565 48.4648 25.755 48.4648 25.755C48.4648 25.755 51.5048 29.495 52.7548 30.48C53.0598 30.72 53.4748 30.695 53.8098 30.495C58.5748 27.68 60.7848 25.645 61.3898 24.085C61.5148 23.745 61.2898 23.465 61.1148 23.145V23.145Z" fill="#CFB0EA"/>
<path d="M41.18 4.73996C40.82 4.39996 39.985 3.70496 38.55 4.10996C36.995 4.54496 34.635 4.85996 31.94 4.86996C29.25 4.85996 26.89 4.54996 25.335 4.10996C23.905 3.70996 23.07 4.40496 22.705 4.73996C22.125 5.27996 20.335 6.66996 20.335 7.21496C20.335 9.11996 21.295 14.9 26.63 15.83C29.27 16.29 30.94 14.06 31.61 12.92C31.685 12.795 31.81 12.73 31.94 12.725C32.07 12.735 32.195 12.795 32.27 12.92C32.94 14.065 34.61 16.29 37.25 15.83C42.585 14.905 43.55 9.12496 43.55 7.21996C43.55 6.66996 41.76 5.27996 41.18 4.73996Z" fill="#EEEEEE"/>
<path d="M20.3903 7.22009C20.6153 8.72509 21.0553 10.1851 21.7953 11.4501C22.5003 12.7251 23.4953 13.7901 24.7103 14.4001C25.3153 14.7101 25.9753 14.9001 26.6453 15.0201C27.2853 15.1351 27.8703 15.0651 28.4253 14.8251C28.9803 14.5901 29.4953 14.2001 29.9403 13.7051C30.1653 13.4601 30.3703 13.1901 30.5603 12.9101C30.6553 12.7701 30.7453 12.6251 30.8303 12.4751L30.9003 12.3501C30.9853 12.2001 31.1103 12.0651 31.2603 11.9601C31.5191 11.7802 31.837 11.7063 32.1486 11.7538C32.4602 11.8012 32.7417 11.9663 32.9353 12.2151L33.0103 12.3201L33.0303 12.3501L33.1803 12.5901C33.2753 12.7451 33.3753 12.8951 33.4703 13.0401C33.6653 13.3301 33.8703 13.6001 34.0903 13.8451C34.5303 14.3351 35.0403 14.7001 35.5953 14.9151C36.1503 15.1351 36.7753 15.1801 37.4203 15.0801C38.0803 14.9651 38.7603 14.7751 39.3603 14.4751C40.5803 13.8801 41.5553 12.8151 42.1903 11.5101C42.5253 10.8651 42.7853 10.1651 42.9853 9.44009C43.1803 8.71509 43.3253 7.97009 43.4903 7.21509L43.5903 7.22509C43.4703 8.74009 43.2703 10.2851 42.6853 11.7101C42.1203 13.1351 41.1153 14.4201 39.7503 15.1651C39.0803 15.5501 38.3403 15.7951 37.5803 15.9451C36.8203 16.0901 36.0153 16.0701 35.2803 15.8051C34.5403 15.5501 33.8953 15.0701 33.3703 14.5051C33.1053 14.2201 32.8703 13.9151 32.6503 13.6001C32.5403 13.4401 32.4353 13.2801 32.3303 13.1201L32.1753 12.8801C32.1596 12.8491 32.1377 12.8215 32.1111 12.7992C32.0845 12.7769 32.0536 12.7601 32.0203 12.7501C31.9879 12.742 31.9543 12.7409 31.9215 12.747C31.8887 12.753 31.8576 12.766 31.8303 12.7851C31.8053 12.8051 31.7803 12.8301 31.7603 12.8551L31.6903 12.9801C31.5903 13.1451 31.4903 13.3101 31.3803 13.4701C31.1603 13.7851 30.9203 14.0951 30.6553 14.3751C30.1303 14.9401 29.5003 15.4251 28.7703 15.7101C28.0453 16.0001 27.2303 16.0551 26.4753 15.8901C25.7203 15.7401 24.9803 15.4851 24.3103 15.0951C22.9553 14.3301 21.9503 13.0701 21.3053 11.6801C20.6622 10.2809 20.3134 8.7646 20.2803 7.22509H20.3903V7.22009Z" fill="#B881CF"/>
<path d="M41.1797 4.73988C40.7947 4.42988 39.9847 3.70488 38.5497 4.10988C36.9947 4.54488 34.6347 4.85988 31.9397 4.86988C29.2497 4.85988 26.8897 4.54988 25.3347 4.10988C23.9047 3.70988 23.0697 4.40488 22.7047 4.73988C22.1447 5.26488 20.4497 6.58488 20.3447 7.16488C20.6097 7.22988 22.4847 5.38988 23.1197 5.44488C23.6097 5.48488 24.2897 7.09488 25.4647 7.49988C26.6397 7.90488 38.3547 7.67988 38.3547 7.67988C38.3547 7.67988 39.4597 6.80988 40.0597 5.98488C40.4197 5.48988 40.7397 5.30488 41.2547 5.55988C41.7597 5.81488 43.4697 7.49988 43.5397 7.17988C43.4747 6.61488 41.8597 5.28488 41.1797 4.73988V4.73988Z" fill="#EEEEEE"/>
<path d="M10.6949 31.11C7.34986 29.095 4.56486 26.815 2.10486 24.425C2.04705 24.3697 2.0104 24.2959 2.00126 24.2165C1.99213 24.137 2.01109 24.0569 2.05486 23.99L2.69486 22.995C2.72164 22.9519 2.75772 22.9153 2.80045 22.888C2.84318 22.8607 2.89149 22.8433 2.94183 22.837C2.99217 22.8308 3.04326 22.8359 3.09137 22.852C3.13948 22.8681 3.18338 22.8947 3.21986 22.93C5.56986 25.185 8.76986 27.665 11.9349 29.585C12.1199 29.7 12.1549 29.955 12.0049 30.115L11.1249 31.055C11.0199 31.17 10.8349 31.195 10.6949 31.11V31.11ZM53.3049 31.11C56.6499 29.095 59.4399 26.815 61.8999 24.425C62.0199 24.31 62.0399 24.125 61.9499 23.99L61.3099 22.995C61.2831 22.9519 61.247 22.9153 61.2043 22.888C61.1615 22.8607 61.1132 22.8433 61.0629 22.837C61.0125 22.8308 60.9614 22.8359 60.9133 22.852C60.8652 22.8681 60.8213 22.8947 60.7849 22.93C58.4349 25.185 55.2349 27.665 52.0699 29.585C52.0263 29.6118 51.9893 29.6481 51.9615 29.691C51.9337 29.734 51.9158 29.7826 51.9091 29.8333C51.9024 29.8841 51.907 29.9357 51.9227 29.9844C51.9384 30.0331 51.9648 30.0777 51.9999 30.115L52.8799 31.055C52.9799 31.17 53.1649 31.195 53.3049 31.11V31.11Z" fill="#B881CF"/>
<path d="M38.6401 4.995C37.7901 5.2 35.0201 5.965 32.1001 5.965H31.8901C28.9701 5.965 26.1951 5.205 25.3501 4.995C24.5001 4.79 24.1701 5 24.3351 5.68C25.0501 7.51 27.1851 10.18 32.0001 10.185C36.8151 10.18 38.9501 7.51 39.6651 5.68C39.8201 4.995 39.4901 4.79 38.6401 4.995V4.995Z" fill="url(#paint0_linear_105_437)"/>
</g>
<defs>
<linearGradient id="paint0_linear_105_437" x1="31.9916" y1="4.8235" x2="31.9916" y2="11.57" gradientUnits="userSpaceOnUse">
<stop offset="0.181" stop-color="#B881CF"/>
<stop offset="1" stop-color="#754CA5"/>
</linearGradient>
</defs>
</svg>
