<svg width="64" height="64" viewBox="0 0 64 64" fill="none" xmlns="http://www.w3.org/2000/svg">
<g style="mix-blend-mode:multiply">
<path d="M53.3845 4.19189V17.5689L51.0625 15.7919L44.0635 10.3959V4.19189H53.3845Z" fill="#83A6B8"/>
<path d="M56.3056 63.956L7.75956 64L7.72656 27.064L10.3756 25.015L29.4766 10.232L31.9826 8.29199L34.5016 10.232L42.7436 16.588L51.0616 22.998L53.6346 24.971L56.2716 27.01L56.3056 63.956Z" fill="#EDEDED"/>
<path d="M63.0871 25.059V32.275L56.2721 27.01L53.6351 24.971L51.0621 22.998L42.7441 16.588L34.5021 10.232L31.9831 8.29197L29.4771 10.232L10.3761 25.015L7.72709 27.064L0.924086 32.319L0.913086 25.113L10.3651 17.809L20.1451 10.243L31.9831 1.07397L42.7441 9.38097L43.8341 10.221L44.0631 10.396L51.0621 15.792L53.3841 17.569L53.6351 17.765L63.0871 25.059Z" fill="#A0C3D8"/>
<path d="M55.0136 0H42.4326V4.189H55.0136V0Z" fill="#A0C3D8"/>
<path d="M45.0316 27.768C48.3926 31.359 48.1306 37.034 44.6506 40.513L32.0336 53.129C32.0256 53.137 32.0126 53.137 32.0046 53.129L19.3886 40.514C15.9126 37.038 15.6456 31.369 18.9996 27.776C22.5046 24.022 28.3946 23.938 32.0056 27.533C32.0136 27.541 32.0266 27.541 32.0336 27.533C35.6426 23.939 41.5216 24.018 45.0316 27.768Z" fill="#F26E62"/>
</g>
</svg>
