<svg width="64" height="64" viewBox="0 0 64 64" fill="none" xmlns="http://www.w3.org/2000/svg">
<g style="mix-blend-mode:multiply">
<path d="M13.4953 13.0802C14.9106 14.2548 16.5658 15.1055 18.3447 15.5726C20.1236 16.0396 21.9832 16.1117 23.793 15.7839C23.8304 13.8179 23.4241 11.8688 22.6043 10.0815C21.7845 8.29421 20.5723 6.71473 19.0579 5.46053C17.6426 4.2859 15.9874 3.43521 14.2085 2.96815C12.4296 2.50109 10.5699 2.42897 8.76018 2.75686C8.7228 4.72284 9.12911 6.67194 9.9489 8.45923C10.7687 10.2465 11.9809 11.826 13.4953 13.0802V13.0802Z" fill="#37B678"/>
<path d="M23.7933 16.7214C23.5779 16.7216 23.3691 16.6473 23.2023 16.5112L14.9553 9.80322C14.8598 9.72553 14.7805 9.6298 14.722 9.52148C14.6635 9.41316 14.6269 9.29437 14.6143 9.17191C14.6017 9.04944 14.6133 8.92569 14.6486 8.80772C14.6838 8.68975 14.7419 8.57988 14.8196 8.48437C14.8973 8.38886 14.993 8.30958 15.1013 8.25107C15.2096 8.19256 15.3284 8.15596 15.4509 8.14335C15.5733 8.13075 15.6971 8.14239 15.8151 8.17761C15.933 8.21283 16.0429 8.27094 16.1384 8.34863L24.3854 15.0566C24.5356 15.1788 24.6443 15.3445 24.6966 15.531C24.7488 15.7175 24.742 15.9156 24.6771 16.098C24.6122 16.2805 24.4924 16.4384 24.3341 16.55C24.1759 16.6616 23.9869 16.7215 23.7933 16.7214V16.7214Z" fill="#00A653"/>
<path d="M50.0913 40.8813C50.0775 41.2451 50.0525 41.7601 49.995 42.3963C49.9637 42.7438 49.9237 43.1263 49.87 43.5401C49.6944 44.9084 49.4259 46.2632 49.0662 47.5951C48.2337 50.6676 46.7225 54.2851 43.965 57.5763C43.1977 58.4941 42.3602 59.3509 41.46 60.1388C41.1355 60.4232 40.7958 60.6898 40.4425 60.9376C40.275 61.0551 40.1063 61.1688 39.935 61.2751C37.015 63.1251 33.5175 63.5763 30.27 62.4551C27.0082 61.3205 23.4684 61.2627 20.1712 62.2901C16.5 63.4226 12.565 62.5926 9.52125 60.0151C8.63937 59.2683 7.81805 58.4529 7.065 57.5763C1.435 51.0426 0.995 42.9951 0.93875 40.8813C0.93875 40.8276 0.9375 40.7651 0.9375 40.6938C0.9375 38.7501 1.2 30.5088 7.065 24.1863C8.16856 22.9917 9.41648 21.939 10.78 21.0526C14.1262 18.8801 18.1812 18.7026 21.7437 20.3838C23.0696 21.0225 24.5172 21.3691 25.9886 21.4001C27.4599 21.4312 28.9208 21.146 30.2725 20.5638C32.0201 19.8115 33.9317 19.521 35.8239 19.7204C37.7161 19.9199 39.5252 20.6024 41.0775 21.7026C42.1206 22.4319 43.0879 23.264 43.965 24.1863C50.115 30.6426 50.1125 39.4076 50.0913 40.8813Z" fill="#E5303E"/>
<path d="M25.5767 26.4377C25.3823 26.4377 25.1927 26.3772 25.0342 26.2647C24.8757 26.1522 24.756 25.9932 24.6918 25.8097C23.2475 21.6902 22.6661 17.3177 22.9838 12.9639C23.3015 8.61018 24.5116 4.36836 26.5387 0.502236C26.6542 0.282251 26.8524 0.117145 27.0896 0.0432018C27.3269 -0.0307419 27.5838 -0.00747405 27.8038 0.107892C28.0239 0.223258 28.1892 0.421284 28.2634 0.658453C28.3375 0.895621 28.3145 1.15253 28.1993 1.37272C26.2915 5.01123 25.1527 9.00336 24.8538 13.1008C24.5548 17.1983 25.1021 21.3134 26.4616 25.1903C26.5109 25.3316 26.5258 25.4827 26.5048 25.631C26.4838 25.7792 26.4277 25.9203 26.3411 26.0424C26.2545 26.1645 26.1399 26.2641 26.0069 26.3329C25.8739 26.4016 25.7264 26.4376 25.5767 26.4377L25.5767 26.4377Z" fill="#B28966"/>
<path d="M25.5121 27.3761C25.4662 27.3761 25.4204 27.3757 25.3746 27.3748C24.3265 27.3524 23.2949 27.1085 22.3477 26.6591C22.1233 26.5522 21.9506 26.3606 21.8675 26.1264C21.7843 25.8921 21.7976 25.6345 21.9044 25.4101C22.0111 25.1856 22.2026 25.0128 22.4368 24.9295C22.671 24.8462 22.9286 24.8593 23.1531 24.9659C23.8908 25.3183 24.698 25.5012 25.5156 25.5012C26.3331 25.5012 27.1403 25.3182 27.878 24.9657C28.1025 24.8593 28.3601 24.8464 28.5942 24.9297C28.8282 25.0131 29.0196 25.186 29.1263 25.4104C29.233 25.6349 29.2462 25.8924 29.163 26.1266C29.0799 26.3607 28.9072 26.5523 28.6829 26.6592C27.6919 27.1296 26.609 27.3744 25.5121 27.3761V27.3761ZM49.8699 43.54C49.6943 44.9083 49.4257 46.2631 49.0661 47.595C48.2336 50.6675 46.7224 54.285 43.9649 57.5762C43.1976 58.494 42.36 59.3508 41.4599 60.1387C41.1353 60.4231 40.7957 60.6897 40.4424 60.9375C40.2749 61.055 40.1061 61.1687 39.9349 61.275C39.0776 60.9049 38.244 60.4824 37.4386 60.01C35.7823 59.0416 34.2455 57.882 32.8599 56.555C31.9436 55.6387 26.8436 50.3775 26.6224 42.6525C26.5793 41.245 26.7082 39.8375 27.0061 38.4612C27.7411 35.08 30.0936 32.4712 33.2549 31.2937C33.7747 31.1009 34.2763 30.862 34.7536 30.58C35.1803 30.3248 35.6805 30.2205 36.1736 30.284C36.6668 30.3475 37.1242 30.575 37.4724 30.93L49.8699 43.54Z" fill="#B72732"/>
<path d="M41.2225 30.9303C40.8743 30.5752 40.4167 30.3475 39.9235 30.284C39.4302 30.2205 38.9299 30.3248 38.5031 30.5801C38.0261 30.8622 37.5249 31.1011 37.0054 31.2941C33.8442 32.4717 31.4908 35.0804 30.7563 38.4612C30.4586 39.8377 30.3296 41.2454 30.3722 42.653C30.5935 50.3778 35.6939 55.6386 36.6097 56.5547L36.6097 56.5548C37.9044 57.801 42.9685 62.4094 50.2768 62.8993C51.2572 62.9657 52.2413 62.9535 53.2197 62.8629C56.602 62.5483 59.4827 60.6249 61.0333 57.6742C61.4766 56.8287 62.002 56.0289 62.6019 55.2862C62.9198 54.8948 63.083 54.4003 63.0606 53.8966C63.0382 53.3928 62.8317 52.9148 62.4803 52.5531L41.2225 30.9303Z" fill="#FFDAA7"/>
<path d="M49.6836 47.7167C50.5428 46.8853 50.0449 44.9769 48.5714 43.4542C47.098 41.9314 45.207 41.371 44.3478 42.2024C43.4885 43.0338 43.9864 44.9422 45.4599 46.4649C46.9333 47.9877 48.8243 48.5481 49.6836 47.7167Z" fill="#58565D"/>
</g>
</svg>
