<svg width="32" height="32" viewBox="0 0 32 32" fill="none" xmlns="http://www.w3.org/2000/svg">
<path fill-rule="evenodd" clip-rule="evenodd" d="M0 4C0 1.79086 1.79086 0 4 0H28C30.2091 0 32 1.79086 32 4V28C32 30.2091 30.2091 32 28 32H4C1.79086 32 0 30.2091 0 28V4ZM12.4631 12.2007H16.7962V14.3767C17.4216 13.1258 19.0216 12 21.426 12C26.0355 12 27.1278 14.4916 27.1278 19.0633V27.5316H22.4631V20.1047C22.4631 17.5011 21.8376 16.032 20.2493 16.032C18.0456 16.032 17.1293 17.616 17.1293 20.1047V27.5316H12.4631V12.2007ZM4.46309 27.3324H9.12927V12H4.46309V27.3309V27.3324ZM9.79691 6.99927C9.80571 7.3988 9.73461 7.79605 9.5878 8.16773C9.44099 8.53941 9.22142 8.87801 8.94197 9.16368C8.66253 9.44935 8.32883 9.67632 7.96048 9.83128C7.59213 9.98624 7.19653 10.0661 6.79691 10.0661C6.39729 10.0661 6.0017 9.98624 5.63334 9.83128C5.26499 9.67632 4.93129 9.44935 4.65185 9.16368C4.3724 8.87801 4.15283 8.53941 4.00602 8.16773C3.85921 7.79605 3.78811 7.3988 3.79691 6.99927C3.81418 6.21506 4.13784 5.46879 4.69856 4.92027C5.25929 4.37175 6.01251 4.06461 6.79691 4.06461C7.58131 4.06461 8.33453 4.37175 8.89526 4.92027C9.45599 5.46879 9.77964 6.21506 9.79691 6.99927Z" fill="#0A66C2"/>
</svg>
