<svg width="80" height="80" viewBox="0 0 80 80" fill="none" xmlns="http://www.w3.org/2000/svg">
<path d="M60.2502 77.5H19.7502C16.4377 77.5 14.1252 74.1875 15.3127 71.125L21.2502 54.9375C21.9377 53.0625 23.6877 51.8125 25.6877 51.8125H54.2502C56.2502 51.8125 58.0002 53.0625 58.6877 54.9375L64.6877 71.125C65.8752 74.1875 63.5627 77.5 60.2502 77.5Z" fill="#7CC9F2"/>
<path d="M25.0002 73.25C24.8752 73.25 24.7502 73.1875 24.6252 73.125L20.1877 70.625C19.8127 70.4375 19.6877 69.9375 19.8752 69.5625C20.0627 69.1875 20.5627 69.0625 20.9377 69.25L25.3752 71.75C25.7502 71.9375 25.8752 72.4375 25.6877 72.8125C25.5627 73.125 25.3127 73.25 25.0002 73.25Z" fill="#F1F7F2"/>
<path d="M20.6252 73.25C20.3752 73.25 20.0627 73.125 19.9377 72.875C19.7502 72.5 19.8752 72 20.2502 71.8125L24.6877 69.3125C25.0627 69.125 25.5627 69.25 25.7502 69.625C25.9377 70 25.8127 70.5 25.4377 70.6875L21.0002 73.1875C20.8752 73.25 20.7502 73.25 20.6252 73.25Z" fill="#F1F7F2"/>
<path d="M40.6874 70.0625C40.4374 70.0625 40.2499 70.0625 39.9999 70.0625C39.5624 70.0625 39.2499 69.6875 39.2499 69.25C39.2499 68.8125 39.6249 68.5 40.0624 68.5C40.2499 68.5 40.4374 68.5 40.6249 68.5C41.0624 68.5 41.3749 68.875 41.3749 69.3125C41.4374 69.75 41.1249 70.0625 40.6874 70.0625ZM43.1249 69.8125C42.7499 69.8125 42.4374 69.5625 42.3749 69.25C42.2499 68.8125 42.4999 68.375 42.9374 68.3125C43.1249 68.25 43.3124 68.1875 43.4374 68.125C43.8124 68 44.3124 68.1875 44.4374 68.5625C44.5624 68.9375 44.3749 69.4375 43.9999 69.5625C43.8124 69.625 43.5624 69.6875 43.3124 69.75C43.3124 69.8125 43.2499 69.8125 43.1249 69.8125ZM37.5624 69.8125C37.4999 69.8125 37.4999 69.8125 37.4374 69.8125C37.2499 69.75 36.9999 69.75 36.8124 69.6875C36.3749 69.625 36.1249 69.1875 36.1874 68.8125C36.2499 68.375 36.6874 68.125 37.0624 68.1875C37.2499 68.25 37.4374 68.25 37.6874 68.3125C38.1249 68.375 38.4374 68.75 38.3124 69.1875C38.3124 69.5 37.9374 69.8125 37.5624 69.8125ZM27.6874 69.3125C27.3749 69.3125 27.0624 69.125 26.9374 68.75C26.8124 68.3125 26.9999 67.875 27.4374 67.75C27.6249 67.6875 27.8749 67.625 28.1249 67.5625C28.5624 67.4375 28.9374 67.75 29.0624 68.125C29.1874 68.5625 28.8749 68.9375 28.4999 69.0625C28.3124 69.125 28.1249 69.1875 27.9374 69.1875C27.8124 69.3125 27.7499 69.3125 27.6874 69.3125ZM34.4999 69.25C34.4374 69.25 34.4374 69.25 34.3749 69.25C34.1874 69.1875 33.9999 69.1875 33.7499 69.125C33.3124 69.0625 32.9999 68.6875 33.0624 68.25C33.1249 67.8125 33.4999 67.5 33.9374 67.5625C34.1249 67.5625 34.3749 67.625 34.5624 67.6875C34.9999 67.75 35.2499 68.1875 35.1874 68.5625C35.1874 69 34.8749 69.25 34.4999 69.25ZM31.3749 68.9375C31.1249 68.9375 30.9374 68.9375 30.7499 68.9375C30.3124 68.9375 29.9999 68.5625 29.9999 68.125C29.9999 67.6875 30.3749 67.375 30.7499 67.375C30.9374 67.375 31.1874 67.375 31.4374 67.375C31.8749 67.375 32.1874 67.75 32.1874 68.1875C32.1249 68.5625 31.8124 68.9375 31.3749 68.9375ZM45.8124 68.25C45.6249 68.25 45.4374 68.1875 45.2499 68C44.9374 67.6875 44.9374 67.1875 45.2499 66.875C45.3749 66.75 45.4999 66.625 45.6249 66.5C45.8749 66.1875 46.3749 66.125 46.7499 66.375C47.1249 66.625 47.1249 67.125 46.8749 67.5C46.7499 67.6875 46.5624 67.875 46.3749 68C46.2499 68.1875 46.0624 68.25 45.8124 68.25Z" fill="#F1F7F2"/>
<path d="M46.25 65C45.625 65 45.0625 64.5 45.0625 63.8125V25.625C45.0625 25 45.5625 24.4375 46.25 24.4375C46.875 24.4375 47.4375 24.9375 47.4375 25.625V63.8125C47.4375 64.5 46.875 65 46.25 65Z" fill="#FFDAA7"/>
<path d="M46.25 37.25C55.8459 37.25 63.625 29.4709 63.625 19.875C63.625 10.2791 55.8459 2.5 46.25 2.5C36.6541 2.5 28.875 10.2791 28.875 19.875C28.875 29.4709 36.6541 37.25 46.25 37.25Z" fill="#F26E62"/>
<path d="M34.6875 21.125C34 21.125 33.4375 20.5625 33.4375 19.875C33.4375 12.8125 39.1875 7.0625 46.25 7.0625C46.9375 7.0625 47.5 7.625 47.5 8.3125C47.5 9 46.9375 9.5625 46.25 9.5625C40.5625 9.5625 35.9375 14.1875 35.9375 19.875C35.9375 20.5625 35.375 21.125 34.6875 21.125Z" fill="#F1F7F2"/>
<path d="M46.25 2.5C45.25 2.5 44.3125 2.5625 43.375 2.75C51.5625 4.125 57.8125 11.25 57.8125 19.875C57.8125 28.5 51.5625 35.625 43.375 37C44.3125 37.1875 45.3125 37.25 46.25 37.25C55.8125 37.25 63.625 29.5 63.625 19.875C63.625 10.25 55.8125 2.5 46.25 2.5Z" fill="#BD483D"/>
</svg>
